# 3ds Max Wavefront OBJ Exporter v0.97b - (c)2007 guruware
# File Created: 09.04.2015 16:26:54

mtllib L1.mtl

#
# object Box001
#

v  2.5000 0.0000 -2.5000
v  -2.5000 0.0000 -2.5000
v  -2.5000 0.0000 -7.5000
v  2.5000 0.0000 -7.5000
v  -2.5000 14.9694 -7.5000
v  -2.5000 14.9694 -2.5000
v  2.5000 14.9694 -2.5000
v  2.5000 14.9694 -7.5000
# 8 vertices

vn 0.0000 -1.0000 -0.0000
vn 0.0000 1.0000 -0.0000
vn 0.0000 0.0000 1.0000
vn 1.0000 0.0000 -0.0000
vn 0.0000 0.0000 -1.0000
vn -1.0000 0.0000 -0.0000
# 6 vertex normals

vt 0.0000 0.0000 0.0000
vt 5.0000 0.0000 0.0000
vt 5.0000 5.0000 0.0000
vt 0.0000 5.0000 0.0000
vt 0.0000 10.0000 0.0000
vt 5.0000 10.0000 0.0000
# 6 texture coords

g Box001
usemtl wire_027177088
s 2
f 1/1/1 2/2/1 3/3/1 4/4/1 
s 4
f 5/4/2 6/1/2 7/2/2 8/3/2 
s 8
f 6/5/3 2/1/3 1/2/3 7/6/3 
s 16
f 7/5/4 1/1/4 4/2/4 8/6/4 
s 32
f 8/5/5 4/1/5 3/2/5 5/6/5 
s 64
f 5/5/6 3/1/6 2/2/6 6/6/6 
# 6 polygons

#
# object Box003
#

v  2.5000 0.0000 17.5000
v  -2.5000 0.0000 17.5000
v  -2.5000 0.0000 12.5000
v  2.5000 0.0000 12.5000
v  -2.5000 15.0000 12.5000
v  -2.5000 15.0000 17.5000
v  2.5000 15.0000 17.5000
v  2.5000 15.0000 12.5000
# 8 vertices

vn 0.0000 -1.0000 -0.0000
vn 0.0000 1.0000 -0.0000
vn 0.0000 0.0000 1.0000
vn 1.0000 0.0000 -0.0000
vn 0.0000 0.0000 -1.0000
vn -1.0000 0.0000 -0.0000
# 6 vertex normals

vt 0.0000 0.0000 0.0000
vt 5.0000 0.0000 0.0000
vt 5.0000 5.0000 0.0000
vt 0.0000 5.0000 0.0000
vt 0.0000 15.0000 0.0000
vt 5.0000 15.0000 0.0000
# 6 texture coords

g Box003
usemtl wire_027177088
s 2
f 9/7/7 10/8/7 11/9/7 12/10/7 
s 4
f 13/10/8 14/7/8 15/8/8 16/9/8 
s 8
f 14/11/9 10/7/9 9/8/9 15/12/9 
s 16
f 15/11/10 9/7/10 12/8/10 16/12/10 
s 32
f 16/11/11 12/7/11 11/8/11 13/12/11 
s 64
f 13/11/12 11/7/12 10/8/12 14/12/12 
# 6 polygons

#
# object Box004
#

v  2.5000 0.0000 -5.7148
v  -2.5000 0.0000 -5.7148
v  -2.5000 5.0000 -5.7148
v  2.5000 5.0000 -5.7148
v  -2.5000 5.0000 5.7148
v  -2.5000 0.0000 5.7148
v  2.5000 0.0000 5.7148
v  2.5000 5.0000 5.7148
# 8 vertices

vn 0.0000 0.0000 -1.0000
vn 0.0000 0.0000 1.0000
vn 0.0000 -1.0000 -0.0000
vn 1.0000 0.0000 -0.0000
vn 0.0000 1.0000 -0.0000
vn -1.0000 0.0000 -0.0000
# 6 vertex normals

vt 0.0000 0.0000 0.0000
vt 5.0000 0.0000 0.0000
vt 5.0000 5.0000 0.0000
vt 0.0000 5.0000 0.0000
vt 0.0000 15.0000 0.0000
vt 5.0000 15.0000 0.0000
# 6 texture coords

g Box004
usemtl wire_027177088
s 2
f 17/13/13 18/14/13 19/15/13 20/16/13 
s 4
f 21/16/14 22/13/14 23/14/14 24/15/14 
s 8
f 22/17/15 18/13/15 17/14/15 23/18/15 
s 16
f 23/17/16 17/13/16 20/14/16 24/18/16 
s 32
f 24/17/17 20/13/17 19/14/17 21/18/17 
s 64
f 21/17/18 19/13/18 18/14/18 22/18/18 
# 6 polygons

